<mxfile host="app.diagrams.net" modified="2024-05-17T08:17:12.221Z" agent="Mozilla/5.0 (Windows NT 10.0; Win64; x64) AppleWebKit/537.36 (KHTML, like Gecko) Chrome/122.0.0.0 Safari/537.36 Edg/122.0.0.0" etag="1-ad3xfRwKDCeHObZ39J" version="24.4.3" type="github">
  <diagram name="第 1 页" id="VxNEleHXGu8UuXWeugi7">
    <mxGraphModel dx="1297" dy="712" grid="1" gridSize="10" guides="1" tooltips="1" connect="1" arrows="1" fold="1" page="1" pageScale="1" pageWidth="827" pageHeight="1169" math="0" shadow="0">
      <root>
        <mxCell id="0" />
        <mxCell id="1" parent="0" />
        <mxCell id="XbkIyCVHTv0LO2_xPqWA-1" value="&lt;b&gt;2BW&lt;/b&gt;" style="text;strokeColor=none;align=center;fillColor=none;html=1;verticalAlign=middle;whiteSpace=wrap;rounded=0;" vertex="1" parent="1">
          <mxGeometry x="34.75" y="105.5" width="60" height="30" as="geometry" />
        </mxCell>
        <mxCell id="XbkIyCVHTv0LO2_xPqWA-3" value="" style="group;strokeColor=none;fillColor=#CCCCCC;fontColor=#ffffff;container=0;" vertex="1" connectable="0" parent="1">
          <mxGeometry x="91.25" y="299" width="200" height="15" as="geometry" />
        </mxCell>
        <mxCell id="XbkIyCVHTv0LO2_xPqWA-4" value="" style="group;strokeColor=none;fillColor=#CCCCCC;fontColor=#ffffff;container=0;" vertex="1" connectable="0" parent="1">
          <mxGeometry x="90.25" y="255" width="200" height="15" as="geometry" />
        </mxCell>
        <mxCell id="XbkIyCVHTv0LO2_xPqWA-5" value="" style="group;strokeColor=none;fillColor=#CCCCCC;fontColor=#ffffff;container=0;" vertex="1" connectable="0" parent="1">
          <mxGeometry x="90.25" y="211" width="200" height="15" as="geometry" />
        </mxCell>
        <mxCell id="XbkIyCVHTv0LO2_xPqWA-6" value="" style="rounded=0;whiteSpace=wrap;html=1;fillColor=#F8CECC;strokeColor=none;container=0;" vertex="1" parent="1">
          <mxGeometry x="92.25199999999995" y="314" width="199.25" height="45" as="geometry" />
        </mxCell>
        <mxCell id="XbkIyCVHTv0LO2_xPqWA-7" value="" style="rounded=0;whiteSpace=wrap;html=1;fillColor=#FFF4C3;strokeColor=none;container=0;" vertex="1" parent="1">
          <mxGeometry x="92.25199999999995" y="269" width="199.25" height="30" as="geometry" />
        </mxCell>
        <mxCell id="XbkIyCVHTv0LO2_xPqWA-8" value="" style="rounded=0;whiteSpace=wrap;html=1;fillColor=#E1D5E7;strokeColor=none;container=0;" vertex="1" parent="1">
          <mxGeometry x="90.00199999999995" y="226" width="199.25" height="30" as="geometry" />
        </mxCell>
        <mxCell id="XbkIyCVHTv0LO2_xPqWA-9" value="" style="rounded=0;whiteSpace=wrap;html=1;fillColor=#D4E1F5;strokeColor=none;container=0;" vertex="1" parent="1">
          <mxGeometry x="91.25199999999995" y="120" width="199.25" height="46" as="geometry" />
        </mxCell>
        <mxCell id="XbkIyCVHTv0LO2_xPqWA-10" value="" style="rounded=0;whiteSpace=wrap;html=1;fillColor=#D3E8D4;strokeColor=none;container=0;" vertex="1" parent="1">
          <mxGeometry x="91.25199999999995" y="181" width="199.25" height="30" as="geometry" />
        </mxCell>
        <mxCell id="XbkIyCVHTv0LO2_xPqWA-11" value="" style="endArrow=none;dashed=1;html=1;rounded=0;strokeColor=#000000;" edge="1" parent="1">
          <mxGeometry width="50" height="50" relative="1" as="geometry">
            <mxPoint x="88.75" y="181" as="sourcePoint" />
            <mxPoint x="290.75" y="181" as="targetPoint" />
          </mxGeometry>
        </mxCell>
        <mxCell id="XbkIyCVHTv0LO2_xPqWA-12" value="" style="endArrow=none;html=1;rounded=0;strokeWidth=3;strokeColor=#d6b656;fillColor=#fff2cc;" edge="1" parent="1">
          <mxGeometry width="50" height="50" relative="1" as="geometry">
            <mxPoint x="247.87" y="318" as="sourcePoint" />
            <mxPoint x="288.5" y="257" as="targetPoint" />
          </mxGeometry>
        </mxCell>
        <mxCell id="XbkIyCVHTv0LO2_xPqWA-13" value="" style="endArrow=classic;html=1;rounded=0;strokeWidth=2;" edge="1" parent="1">
          <mxGeometry width="50" height="50" relative="1" as="geometry">
            <mxPoint x="91.25" y="380" as="sourcePoint" />
            <mxPoint x="90.75" y="80" as="targetPoint" />
          </mxGeometry>
        </mxCell>
        <mxCell id="XbkIyCVHTv0LO2_xPqWA-14" value="" style="group;strokeColor=none;fillColor=#CCCCCC;fontColor=#ffffff;container=0;" vertex="1" connectable="0" parent="1">
          <mxGeometry x="91.5" y="166" width="200" height="15" as="geometry" />
        </mxCell>
        <mxCell id="XbkIyCVHTv0LO2_xPqWA-15" value="&lt;font size=&quot;1&quot; style=&quot;&quot;&gt;&lt;b style=&quot;font-size: 14px;&quot;&gt;(b)&lt;/b&gt;&lt;/font&gt;" style="text;strokeColor=none;align=center;fillColor=none;html=1;verticalAlign=middle;whiteSpace=wrap;rounded=0;container=0;" vertex="1" parent="1">
          <mxGeometry x="143.75" y="190" width="40" height="20" as="geometry" />
        </mxCell>
        <mxCell id="XbkIyCVHTv0LO2_xPqWA-16" value="&lt;font size=&quot;1&quot; style=&quot;&quot;&gt;&lt;b style=&quot;font-size: 14px;&quot;&gt;(c)&lt;/b&gt;&lt;/font&gt;" style="text;strokeColor=none;align=center;fillColor=none;html=1;verticalAlign=middle;whiteSpace=wrap;rounded=0;container=0;" vertex="1" parent="1">
          <mxGeometry x="130.75" y="360" width="40" height="20" as="geometry" />
        </mxCell>
        <mxCell id="XbkIyCVHTv0LO2_xPqWA-17" value="" style="endArrow=none;html=1;rounded=0;strokeWidth=3;strokeColor=#6c8ebf;exitX=0.008;exitY=0.972;exitDx=0;exitDy=0;exitPerimeter=0;fillColor=#dae8fc;" edge="1" parent="1">
          <mxGeometry width="50" height="50" relative="1" as="geometry">
            <mxPoint x="90.75199999999995" y="180.76" as="sourcePoint" />
            <mxPoint x="129.75" y="120" as="targetPoint" />
          </mxGeometry>
        </mxCell>
        <mxCell id="XbkIyCVHTv0LO2_xPqWA-18" value="" style="endArrow=none;html=1;rounded=0;strokeWidth=3;strokeColor=#6c8ebf;exitX=0.127;exitY=0.984;exitDx=0;exitDy=0;exitPerimeter=0;fillColor=#dae8fc;" edge="1" parent="1" source="XbkIyCVHTv0LO2_xPqWA-42">
          <mxGeometry width="50" height="50" relative="1" as="geometry">
            <mxPoint x="130.90300000000002" y="180.72000000000003" as="sourcePoint" />
            <mxPoint x="169.75" y="120" as="targetPoint" />
          </mxGeometry>
        </mxCell>
        <mxCell id="XbkIyCVHTv0LO2_xPqWA-19" value="" style="endArrow=none;html=1;rounded=0;strokeWidth=3;strokeColor=#6c8ebf;exitX=0.264;exitY=0.979;exitDx=0;exitDy=0;exitPerimeter=0;fillColor=#dae8fc;" edge="1" parent="1">
          <mxGeometry width="50" height="50" relative="1" as="geometry">
            <mxPoint x="171.226" y="180.32000000000005" as="sourcePoint" />
            <mxPoint x="210.75" y="120" as="targetPoint" />
          </mxGeometry>
        </mxCell>
        <mxCell id="XbkIyCVHTv0LO2_xPqWA-20" value="" style="endArrow=none;html=1;rounded=0;strokeWidth=3;strokeColor=#6c8ebf;fillColor=#dae8fc;" edge="1" parent="1">
          <mxGeometry width="50" height="50" relative="1" as="geometry">
            <mxPoint x="210.12" y="181" as="sourcePoint" />
            <mxPoint x="250.75" y="120" as="targetPoint" />
          </mxGeometry>
        </mxCell>
        <mxCell id="XbkIyCVHTv0LO2_xPqWA-21" value="" style="endArrow=none;html=1;rounded=0;strokeWidth=3;strokeColor=#6c8ebf;fillColor=#dae8fc;" edge="1" parent="1">
          <mxGeometry width="50" height="50" relative="1" as="geometry">
            <mxPoint x="251.12" y="181" as="sourcePoint" />
            <mxPoint x="290.75" y="120" as="targetPoint" />
          </mxGeometry>
        </mxCell>
        <mxCell id="XbkIyCVHTv0LO2_xPqWA-22" value="" style="endArrow=none;html=1;rounded=0;strokeWidth=3;strokeColor=#82b366;exitX=0.008;exitY=0.972;exitDx=0;exitDy=0;exitPerimeter=0;fillColor=#d5e8d4;" edge="1" parent="1">
          <mxGeometry width="50" height="50" relative="1" as="geometry">
            <mxPoint x="90.75199999999995" y="225.76" as="sourcePoint" />
            <mxPoint x="129.75" y="165" as="targetPoint" />
          </mxGeometry>
        </mxCell>
        <mxCell id="XbkIyCVHTv0LO2_xPqWA-23" value="" style="endArrow=none;html=1;rounded=0;strokeWidth=3;strokeColor=#82b366;exitX=0.127;exitY=0.984;exitDx=0;exitDy=0;exitPerimeter=0;fillColor=#d5e8d4;" edge="1" parent="1">
          <mxGeometry width="50" height="50" relative="1" as="geometry">
            <mxPoint x="130.90300000000002" y="225.72000000000003" as="sourcePoint" />
            <mxPoint x="169.75" y="165" as="targetPoint" />
          </mxGeometry>
        </mxCell>
        <mxCell id="XbkIyCVHTv0LO2_xPqWA-24" value="" style="endArrow=none;html=1;rounded=0;strokeWidth=3;strokeColor=#82b366;exitX=0.264;exitY=0.979;exitDx=0;exitDy=0;exitPerimeter=0;fillColor=#d5e8d4;" edge="1" parent="1">
          <mxGeometry width="50" height="50" relative="1" as="geometry">
            <mxPoint x="171.226" y="225.32000000000005" as="sourcePoint" />
            <mxPoint x="210.75" y="165" as="targetPoint" />
          </mxGeometry>
        </mxCell>
        <mxCell id="XbkIyCVHTv0LO2_xPqWA-25" value="" style="endArrow=none;html=1;rounded=0;strokeWidth=3;strokeColor=#82b366;fillColor=#d5e8d4;" edge="1" parent="1">
          <mxGeometry width="50" height="50" relative="1" as="geometry">
            <mxPoint x="210.12" y="226" as="sourcePoint" />
            <mxPoint x="250.75" y="165" as="targetPoint" />
          </mxGeometry>
        </mxCell>
        <mxCell id="XbkIyCVHTv0LO2_xPqWA-26" value="" style="endArrow=none;html=1;rounded=0;strokeWidth=3;strokeColor=#82b366;fillColor=#d5e8d4;" edge="1" parent="1">
          <mxGeometry width="50" height="50" relative="1" as="geometry">
            <mxPoint x="251.12" y="226" as="sourcePoint" />
            <mxPoint x="290.75" y="165" as="targetPoint" />
          </mxGeometry>
        </mxCell>
        <mxCell id="XbkIyCVHTv0LO2_xPqWA-27" value="" style="endArrow=none;html=1;rounded=0;strokeWidth=3;strokeColor=#9673a6;exitX=0.008;exitY=0.972;exitDx=0;exitDy=0;exitPerimeter=0;fillColor=#e1d5e7;" edge="1" parent="1">
          <mxGeometry width="50" height="50" relative="1" as="geometry">
            <mxPoint x="90.75199999999995" y="271.76" as="sourcePoint" />
            <mxPoint x="129.75" y="211" as="targetPoint" />
          </mxGeometry>
        </mxCell>
        <mxCell id="XbkIyCVHTv0LO2_xPqWA-28" value="" style="endArrow=none;html=1;rounded=0;strokeWidth=3;strokeColor=#9673a6;exitX=0.127;exitY=0.984;exitDx=0;exitDy=0;exitPerimeter=0;fillColor=#e1d5e7;" edge="1" parent="1">
          <mxGeometry width="50" height="50" relative="1" as="geometry">
            <mxPoint x="130.90300000000002" y="271.72" as="sourcePoint" />
            <mxPoint x="169.75" y="211" as="targetPoint" />
          </mxGeometry>
        </mxCell>
        <mxCell id="XbkIyCVHTv0LO2_xPqWA-29" value="" style="endArrow=none;html=1;rounded=0;strokeWidth=3;strokeColor=#9673a6;exitX=0.264;exitY=0.979;exitDx=0;exitDy=0;exitPerimeter=0;fillColor=#e1d5e7;" edge="1" parent="1">
          <mxGeometry width="50" height="50" relative="1" as="geometry">
            <mxPoint x="171.226" y="271.32000000000005" as="sourcePoint" />
            <mxPoint x="210.75" y="211" as="targetPoint" />
          </mxGeometry>
        </mxCell>
        <mxCell id="XbkIyCVHTv0LO2_xPqWA-30" value="" style="endArrow=none;html=1;rounded=0;strokeWidth=3;strokeColor=#9673a6;fillColor=#e1d5e7;" edge="1" parent="1">
          <mxGeometry width="50" height="50" relative="1" as="geometry">
            <mxPoint x="210.12" y="272" as="sourcePoint" />
            <mxPoint x="250.75" y="211" as="targetPoint" />
          </mxGeometry>
        </mxCell>
        <mxCell id="XbkIyCVHTv0LO2_xPqWA-31" value="" style="endArrow=none;html=1;rounded=0;strokeWidth=3;strokeColor=#9673a6;fillColor=#e1d5e7;" edge="1" parent="1">
          <mxGeometry width="50" height="50" relative="1" as="geometry">
            <mxPoint x="251.12" y="272" as="sourcePoint" />
            <mxPoint x="290.75" y="211" as="targetPoint" />
          </mxGeometry>
        </mxCell>
        <mxCell id="XbkIyCVHTv0LO2_xPqWA-32" value="" style="endArrow=none;html=1;rounded=0;strokeWidth=3;strokeColor=#d6b656;exitX=0.008;exitY=0.972;exitDx=0;exitDy=0;exitPerimeter=0;fillColor=#fff2cc;" edge="1" parent="1">
          <mxGeometry width="50" height="50" relative="1" as="geometry">
            <mxPoint x="90.50199999999995" y="314.76" as="sourcePoint" />
            <mxPoint x="129.5" y="254" as="targetPoint" />
          </mxGeometry>
        </mxCell>
        <mxCell id="XbkIyCVHTv0LO2_xPqWA-33" value="" style="endArrow=none;html=1;rounded=0;strokeWidth=3;strokeColor=#d6b656;exitX=0.127;exitY=0.984;exitDx=0;exitDy=0;exitPerimeter=0;fillColor=#fff2cc;" edge="1" parent="1">
          <mxGeometry width="50" height="50" relative="1" as="geometry">
            <mxPoint x="130.65300000000002" y="314.72" as="sourcePoint" />
            <mxPoint x="169.5" y="254" as="targetPoint" />
          </mxGeometry>
        </mxCell>
        <mxCell id="XbkIyCVHTv0LO2_xPqWA-34" value="" style="endArrow=none;html=1;rounded=0;strokeWidth=3;strokeColor=#d6b656;exitX=0.264;exitY=0.979;exitDx=0;exitDy=0;exitPerimeter=0;fillColor=#fff2cc;" edge="1" parent="1">
          <mxGeometry width="50" height="50" relative="1" as="geometry">
            <mxPoint x="170.976" y="314.32000000000005" as="sourcePoint" />
            <mxPoint x="210.5" y="254" as="targetPoint" />
          </mxGeometry>
        </mxCell>
        <mxCell id="XbkIyCVHTv0LO2_xPqWA-35" value="" style="endArrow=none;html=1;rounded=0;strokeWidth=3;strokeColor=#d6b656;fillColor=#fff2cc;" edge="1" parent="1">
          <mxGeometry width="50" height="50" relative="1" as="geometry">
            <mxPoint x="209.87" y="315" as="sourcePoint" />
            <mxPoint x="250.5" y="254" as="targetPoint" />
          </mxGeometry>
        </mxCell>
        <mxCell id="XbkIyCVHTv0LO2_xPqWA-36" value="" style="endArrow=none;html=1;rounded=0;strokeWidth=3;strokeColor=#b85450;exitX=0.008;exitY=0.972;exitDx=0;exitDy=0;exitPerimeter=0;fillColor=#f8cecc;" edge="1" parent="1">
          <mxGeometry width="50" height="50" relative="1" as="geometry">
            <mxPoint x="91.50199999999995" y="359.76" as="sourcePoint" />
            <mxPoint x="130.5" y="299" as="targetPoint" />
          </mxGeometry>
        </mxCell>
        <mxCell id="XbkIyCVHTv0LO2_xPqWA-37" value="" style="endArrow=none;html=1;rounded=0;strokeWidth=3;strokeColor=#b85450;exitX=0.127;exitY=0.984;exitDx=0;exitDy=0;exitPerimeter=0;fillColor=#f8cecc;" edge="1" parent="1" source="XbkIyCVHTv0LO2_xPqWA-54">
          <mxGeometry width="50" height="50" relative="1" as="geometry">
            <mxPoint x="131.65300000000002" y="359.72" as="sourcePoint" />
            <mxPoint x="170.5" y="299" as="targetPoint" />
          </mxGeometry>
        </mxCell>
        <mxCell id="XbkIyCVHTv0LO2_xPqWA-38" value="" style="endArrow=none;html=1;rounded=0;strokeWidth=3;strokeColor=#b85450;exitX=0.264;exitY=0.979;exitDx=0;exitDy=0;exitPerimeter=0;fillColor=#f8cecc;" edge="1" parent="1">
          <mxGeometry width="50" height="50" relative="1" as="geometry">
            <mxPoint x="171.976" y="359.32000000000005" as="sourcePoint" />
            <mxPoint x="211.5" y="299" as="targetPoint" />
          </mxGeometry>
        </mxCell>
        <mxCell id="XbkIyCVHTv0LO2_xPqWA-39" value="" style="endArrow=none;html=1;rounded=0;strokeWidth=3;strokeColor=#b85450;fillColor=#f8cecc;" edge="1" parent="1">
          <mxGeometry width="50" height="50" relative="1" as="geometry">
            <mxPoint x="210.87" y="360" as="sourcePoint" />
            <mxPoint x="251.5" y="299" as="targetPoint" />
          </mxGeometry>
        </mxCell>
        <mxCell id="XbkIyCVHTv0LO2_xPqWA-40" value="" style="endArrow=none;html=1;rounded=0;strokeWidth=3;strokeColor=#b85450;fillColor=#f8cecc;" edge="1" parent="1">
          <mxGeometry width="50" height="50" relative="1" as="geometry">
            <mxPoint x="251.87" y="360" as="sourcePoint" />
            <mxPoint x="291.5" y="299" as="targetPoint" />
          </mxGeometry>
        </mxCell>
        <mxCell id="XbkIyCVHTv0LO2_xPqWA-41" value="" style="endArrow=none;html=1;rounded=0;strokeWidth=3;strokeColor=#6c8ebf;exitX=0.127;exitY=0.984;exitDx=0;exitDy=0;exitPerimeter=0;fillColor=#dae8fc;" edge="1" parent="1" target="XbkIyCVHTv0LO2_xPqWA-42">
          <mxGeometry width="50" height="50" relative="1" as="geometry">
            <mxPoint x="130.90300000000002" y="180.72000000000003" as="sourcePoint" />
            <mxPoint x="169.75" y="120" as="targetPoint" />
          </mxGeometry>
        </mxCell>
        <mxCell id="XbkIyCVHTv0LO2_xPqWA-42" value="" style="rounded=0;whiteSpace=wrap;html=1;dashed=1;fillColor=none;strokeWidth=2;strokeColor=#000000;container=0;" vertex="1" parent="1">
          <mxGeometry x="130.75" y="120" width="40" height="60" as="geometry" />
        </mxCell>
        <mxCell id="XbkIyCVHTv0LO2_xPqWA-43" value="&lt;font size=&quot;1&quot; style=&quot;&quot;&gt;&lt;b style=&quot;font-size: 14px;&quot;&gt;(a)&lt;/b&gt;&lt;/font&gt;" style="text;strokeColor=none;align=center;fillColor=none;html=1;verticalAlign=middle;whiteSpace=wrap;rounded=0;container=0;" vertex="1" parent="1">
          <mxGeometry x="130.75" y="90" width="40" height="20" as="geometry" />
        </mxCell>
        <mxCell id="XbkIyCVHTv0LO2_xPqWA-44" value="" style="endArrow=none;html=1;rounded=0;strokeWidth=3;strokeColor=#b85450;exitX=0.127;exitY=0.984;exitDx=0;exitDy=0;exitPerimeter=0;fillColor=#f8cecc;" edge="1" parent="1" target="XbkIyCVHTv0LO2_xPqWA-54">
          <mxGeometry width="50" height="50" relative="1" as="geometry">
            <mxPoint x="131.65300000000002" y="359.72" as="sourcePoint" />
            <mxPoint x="170.5" y="299" as="targetPoint" />
          </mxGeometry>
        </mxCell>
        <mxCell id="XbkIyCVHTv0LO2_xPqWA-45" value="" style="endArrow=none;dashed=1;html=1;rounded=0;strokeColor=#000000;" edge="1" parent="1">
          <mxGeometry width="50" height="50" relative="1" as="geometry">
            <mxPoint x="87.75" y="166" as="sourcePoint" />
            <mxPoint x="290.75" y="166" as="targetPoint" />
          </mxGeometry>
        </mxCell>
        <mxCell id="XbkIyCVHTv0LO2_xPqWA-46" value="" style="endArrow=classic;html=1;rounded=0;strokeWidth=2;" edge="1" parent="1">
          <mxGeometry width="50" height="50" relative="1" as="geometry">
            <mxPoint x="75.25" y="360" as="sourcePoint" />
            <mxPoint x="346.25" y="360" as="targetPoint" />
          </mxGeometry>
        </mxCell>
        <mxCell id="XbkIyCVHTv0LO2_xPqWA-47" value="" style="endArrow=none;dashed=1;html=1;rounded=0;strokeColor=#000000;" edge="1" parent="1">
          <mxGeometry width="50" height="50" relative="1" as="geometry">
            <mxPoint x="91.00199999999995" y="299" as="sourcePoint" />
            <mxPoint x="291.0868861283643" y="299" as="targetPoint" />
          </mxGeometry>
        </mxCell>
        <mxCell id="XbkIyCVHTv0LO2_xPqWA-48" value="" style="endArrow=none;dashed=1;html=1;rounded=0;strokeColor=#000000;" edge="1" parent="1">
          <mxGeometry width="50" height="50" relative="1" as="geometry">
            <mxPoint x="91.41711387163554" y="314" as="sourcePoint" />
            <mxPoint x="291.50199999999995" y="314" as="targetPoint" />
          </mxGeometry>
        </mxCell>
        <mxCell id="XbkIyCVHTv0LO2_xPqWA-49" value="" style="endArrow=none;dashed=1;html=1;rounded=0;strokeColor=#000000;" edge="1" parent="1">
          <mxGeometry width="50" height="50" relative="1" as="geometry">
            <mxPoint x="90.00199999999995" y="255" as="sourcePoint" />
            <mxPoint x="290.0868861283643" y="255" as="targetPoint" />
          </mxGeometry>
        </mxCell>
        <mxCell id="XbkIyCVHTv0LO2_xPqWA-50" value="" style="endArrow=none;dashed=1;html=1;rounded=0;strokeColor=#000000;" edge="1" parent="1">
          <mxGeometry width="50" height="50" relative="1" as="geometry">
            <mxPoint x="90.41711387163554" y="270" as="sourcePoint" />
            <mxPoint x="290.50199999999995" y="270" as="targetPoint" />
          </mxGeometry>
        </mxCell>
        <mxCell id="XbkIyCVHTv0LO2_xPqWA-51" value="" style="endArrow=none;dashed=1;html=1;rounded=0;strokeColor=#000000;" edge="1" parent="1">
          <mxGeometry width="50" height="50" relative="1" as="geometry">
            <mxPoint x="90.00199999999995" y="211" as="sourcePoint" />
            <mxPoint x="290.0868861283643" y="211" as="targetPoint" />
          </mxGeometry>
        </mxCell>
        <mxCell id="XbkIyCVHTv0LO2_xPqWA-52" value="" style="endArrow=none;dashed=1;html=1;rounded=0;strokeColor=#000000;" edge="1" parent="1">
          <mxGeometry width="50" height="50" relative="1" as="geometry">
            <mxPoint x="90.41711387163554" y="226" as="sourcePoint" />
            <mxPoint x="290.50199999999995" y="226" as="targetPoint" />
          </mxGeometry>
        </mxCell>
        <mxCell id="XbkIyCVHTv0LO2_xPqWA-53" value="" style="rounded=0;whiteSpace=wrap;html=1;dashed=1;fillColor=none;strokeWidth=2;strokeColor=#000000;container=0;" vertex="1" parent="1">
          <mxGeometry x="130.75" y="210" width="40" height="60" as="geometry" />
        </mxCell>
        <mxCell id="XbkIyCVHTv0LO2_xPqWA-54" value="" style="rounded=0;whiteSpace=wrap;html=1;dashed=1;fillColor=none;strokeWidth=2;strokeColor=#000000;container=0;" vertex="1" parent="1">
          <mxGeometry x="130.75" y="300" width="40" height="60" as="geometry" />
        </mxCell>
        <mxCell id="XbkIyCVHTv0LO2_xPqWA-55" value="&lt;b&gt;-2BW&lt;/b&gt;" style="text;strokeColor=none;align=center;fillColor=none;html=1;verticalAlign=middle;whiteSpace=wrap;rounded=0;" vertex="1" parent="1">
          <mxGeometry x="30" y="346" width="60" height="30" as="geometry" />
        </mxCell>
      </root>
    </mxGraphModel>
  </diagram>
</mxfile>
